<svg width="50" height="40" viewBox="0 0 50 40" fill="none" xmlns="http://www.w3.org/2000/svg">
<path d="M2.30596 19.3366C3.08337 19.3366 3.60452 19.6101 4.12855 20.2835L4.24084 20.4356L14.7234 34.1097L15.8079 32.3861L18.4713 35.7663L17.0844 37.9433C16.5806 38.7181 15.8809 39.1399 15.0037 39.1935L14.8127 39.1992C13.9105 39.1992 13.2617 38.8281 12.6129 38.0677L12.4737 37.8984L0.799125 23.0803C0.37107 22.5428 0.146484 21.9593 0.146484 21.4447C0.146484 20.2108 1.04674 19.3366 2.30596 19.3366ZM47.4149 0.886719C48.6521 0.886719 49.4842 1.694 49.4842 2.92693C49.4842 3.38509 49.3421 3.82603 49.0264 4.37411L48.8997 4.58549L27.6418 37.9433C27.1025 38.7726 26.3375 39.1992 25.3701 39.1992C24.4679 39.1992 23.8191 38.8281 23.1703 38.0677L23.0311 37.8984L11.3565 23.0803C10.9285 22.5428 10.7039 21.9593 10.7039 21.4447C10.7039 20.2108 11.6042 19.3366 12.8634 19.3366C13.6408 19.3366 14.1619 19.6101 14.686 20.2835L14.7983 20.4356L25.2808 34.1097L45.4801 2.02973C46.0204 1.17845 46.5377 0.886719 47.4149 0.886719ZM36.8575 0.886719C38.0947 0.886719 38.9268 1.694 38.9268 2.92693C38.9268 3.38509 38.7847 3.82603 38.469 4.37411L38.3423 4.58549L24.3172 26.5935L21.6481 23.1109L34.9226 2.02973C35.4265 1.23488 35.9112 0.927848 36.6867 0.891501L36.8575 0.886719Z" fill="black"/>
</svg>
