<svg width="271" height="198" viewBox="0 0 271 198" fill="none" xmlns="http://www.w3.org/2000/svg">
<path d="M50.2559 195.546C51.3817 196.569 52.7533 197.073 54.1173 197.073C55.802 197.073 57.4795 196.305 58.657 194.826C60.7967 192.14 60.4908 188.103 57.9863 185.808C55.0267 183.106 52.1343 180.244 49.3839 177.294C23.1736 149.186 9.44981 113.458 13.6095 84.9816C24.7912 83.1031 37.166 84.6218 49.7041 89.115C50.2336 89.4105 50.8152 89.6264 51.4186 89.7464C68.1095 96.0781 85.0163 107.614 99.6871 123.348C103.377 127.305 106.896 131.51 110.138 135.827C112.203 138.577 115.96 139.009 118.524 136.794C121.089 134.58 121.492 130.55 119.427 127.8C115.916 123.124 112.113 118.583 108.118 114.298C93.045 98.1329 75.6608 86.0209 58.18 78.8739C57.7552 67.3057 59.5815 56.7453 63.4504 48.4227C73.2979 50.7172 83.4883 57.1446 92.65 66.8739C91.3751 72.3345 90.3539 77.9785 89.616 83.7665C89.1685 87.268 91.4499 90.4898 94.7146 90.9697C97.9797 91.4491 100.984 89.003 101.431 85.5015C105.442 54.1629 118.129 27.8529 135.677 14.1103C153.225 27.8529 165.913 54.1548 169.923 85.4853C170.371 88.9868 173.375 91.4333 176.64 90.9535C179.905 90.4741 182.186 87.2442 181.739 83.7507C181.001 77.9623 179.98 72.3264 178.705 66.8739C187.867 57.1446 198.064 50.7172 207.904 48.4227C211.766 56.7453 213.6 67.3057 213.175 78.8739C195.694 86.029 178.31 98.1405 163.237 114.298C159.241 118.583 155.439 123.124 151.928 127.8C149.863 130.55 150.266 134.58 152.83 136.794C155.395 139.009 159.152 138.577 161.216 135.827C164.459 131.51 167.978 127.313 171.668 123.348C186.338 107.614 203.238 96.07 219.929 89.7464C220.54 89.6264 221.121 89.4105 221.65 89.115C234.189 84.6299 246.564 83.1031 257.745 84.9816C261.905 113.466 248.181 149.194 221.971 177.294C219.22 180.244 216.328 183.106 213.369 185.808C210.864 188.095 210.558 192.132 212.69 194.826C214.822 197.512 218.586 197.84 221.099 195.554C224.297 192.636 227.428 189.534 230.402 186.344C260.697 153.862 275.703 111.371 268.651 78.1062C268.145 75.7078 266.4 73.8374 264.156 73.2856C252.102 70.3435 238.751 70.9754 225.147 74.7567C225.02 60.6704 221.889 47.847 216.089 37.974C214.867 35.8954 212.638 34.7521 210.357 35.032C198.378 36.5189 185.988 42.9145 174.851 53.2675C167.15 30.1873 154.53 11.5681 138.845 0.983325C136.907 -0.327775 134.432 -0.327775 132.494 0.983325C116.81 11.5681 104.189 30.1873 96.4887 53.2675C85.352 42.9145 72.9773 36.5189 60.9829 35.032C58.7019 34.7521 56.4806 35.8954 55.2578 37.974C49.4659 47.847 46.3423 60.6704 46.2154 74.7567C32.6183 70.9754 19.26 70.3435 7.20603 73.2856C4.96965 73.8294 3.22531 75.7078 2.71091 78.1062C-4.34849 111.371 10.6649 153.855 40.9601 186.344C43.9269 189.526 47.058 192.62 50.2559 195.546Z" fill="#151616"/>
</svg>
