<svg width="70" height="70" viewBox="0 0 70 70" fill="none" xmlns="http://www.w3.org/2000/svg">
<g clip-path="url(#clip0_213_2044)">
<path d="M15.5753 41.131C15.8322 41.3463 16.1452 41.4521 16.4564 41.4521C16.8408 41.4521 17.2236 41.2907 17.4923 40.9796C17.9806 40.4146 17.9108 39.5654 17.3393 39.0828C16.6639 38.5145 16.0039 37.9125 15.3763 37.2919C9.39539 31.3796 6.26376 23.8647 7.21295 17.875C9.76452 17.4799 12.5883 17.7993 15.4494 18.7444C15.5702 18.8065 15.7029 18.8519 15.8406 18.8772C19.6493 20.209 23.5072 22.6354 26.855 25.9448C27.697 26.7772 28.4999 27.6616 29.2398 28.5697C29.711 29.1482 30.5683 29.239 31.1535 28.7732C31.7387 28.3074 31.8305 27.4599 31.3593 26.8814C30.5582 25.8977 29.6905 24.9426 28.7788 24.0413C25.3393 20.6412 21.3724 18.0936 17.3835 16.5903C17.2865 14.157 17.7033 11.9358 18.5862 10.1852C20.8332 10.6678 23.1586 12.0198 25.2492 14.0662C24.9583 15.2148 24.7252 16.4019 24.5569 17.6194C24.4547 18.3559 24.9753 19.0336 25.7203 19.1345C26.4654 19.2353 27.1509 18.7208 27.253 17.9843C28.1682 11.3926 31.0633 5.85856 35.0676 2.96795C39.0719 5.85856 41.967 11.3909 42.8822 17.9809C42.9842 18.7174 43.6697 19.232 44.4148 19.1311C45.1599 19.0303 45.6805 18.3509 45.5783 17.6161C45.41 16.3985 45.1769 15.2131 44.886 14.0662C46.9766 12.0198 49.3037 10.6678 51.5491 10.1852C52.4302 11.9358 52.8487 14.157 52.7517 16.5903C48.7627 18.0953 44.7959 20.6428 41.3564 24.0413C40.4446 24.9426 39.577 25.8977 38.7759 26.8814C38.3047 27.4599 38.3965 28.3074 38.9817 28.7732C39.5669 29.239 40.4242 29.1482 40.8953 28.5697C41.6353 27.6616 42.4382 26.7789 43.2802 25.9448C46.6279 22.6354 50.4842 20.2073 54.2929 18.8772C54.4323 18.8519 54.565 18.8065 54.6857 18.7444C57.5469 17.801 60.3707 17.4799 62.9222 17.875C63.8715 23.8664 60.7398 31.3813 54.7589 37.2919C54.1312 37.9125 53.4712 38.5145 52.7959 39.0828C52.2243 39.5637 52.1546 40.413 52.6411 40.9796C53.1276 41.5446 53.9866 41.6136 54.5599 41.1327C55.2896 40.5188 56.004 39.8664 56.6828 39.1955C63.5959 32.3633 67.02 23.4258 65.4109 16.4288C65.2952 15.9243 64.8972 15.5309 64.3851 15.4149C61.6345 14.796 58.588 14.9289 55.4835 15.7243C55.4547 12.7614 54.7402 10.0641 53.4168 7.98742C53.1378 7.55021 52.6292 7.30974 52.1087 7.3686C49.3751 7.68136 46.548 9.02661 44.0066 11.2043C42.2494 6.34957 39.3695 2.43322 35.7905 0.206832C35.3483 -0.068944 34.7835 -0.068944 34.3412 0.206832C30.7622 2.43322 27.8823 6.34957 26.1252 11.2043C23.5839 9.02661 20.7601 7.68136 18.0231 7.3686C17.5026 7.30974 16.9957 7.55021 16.7167 7.98742C15.395 10.0641 14.6823 12.7614 14.6533 15.7243C11.5506 14.9289 8.50234 14.796 5.75176 15.4149C5.24144 15.5292 4.8434 15.9243 4.72602 16.4288C3.11513 23.4258 6.54104 32.3617 13.4541 39.1955C14.1311 39.8647 14.8456 40.5155 15.5753 41.131Z" fill="#010101"/>
</g>
<path d="M21.5919 31.92C21.5652 32.1733 21.5452 32.42 21.5319 32.66C21.5252 32.8933 21.5219 33.0733 21.5219 33.2C21.5219 33.36 21.5252 33.51 21.5319 33.65C21.5385 33.79 21.5452 33.9133 21.5519 34.02H21.3219C21.2752 33.5533 21.2119 33.1867 21.1319 32.92C21.0519 32.6467 20.9119 32.45 20.7119 32.33C20.5119 32.21 20.2019 32.15 19.7819 32.15H19.2419V37.84C19.2419 38.1067 19.2652 38.3067 19.3119 38.44C19.3652 38.5733 19.4652 38.6633 19.6119 38.71C19.7585 38.7567 19.9719 38.7867 20.2519 38.8V39C20.0785 38.9867 19.8585 38.98 19.5919 38.98C19.3252 38.9733 19.0552 38.97 18.7819 38.97C18.4819 38.97 18.1985 38.9733 17.9319 38.98C17.6719 38.98 17.4619 38.9867 17.3019 39V38.8C17.5819 38.7867 17.7952 38.7567 17.9419 38.71C18.0885 38.6633 18.1852 38.5733 18.2319 38.44C18.2852 38.3067 18.3119 38.1067 18.3119 37.84V32.15H17.7719C17.3585 32.15 17.0485 32.21 16.8419 32.33C16.6419 32.45 16.5019 32.6467 16.4219 32.92C16.3419 33.1867 16.2785 33.5533 16.2319 34.02H16.0019C16.0152 33.9133 16.0219 33.79 16.0219 33.65C16.0285 33.51 16.0319 33.36 16.0319 33.2C16.0319 33.0733 16.0252 32.8933 16.0119 32.66C16.0052 32.42 15.9885 32.1733 15.9619 31.92C16.2419 31.9267 16.5452 31.9333 16.8719 31.94C17.2052 31.9467 17.5385 31.95 17.8719 31.95C18.2052 31.95 18.5085 31.95 18.7819 31.95C19.0552 31.95 19.3552 31.95 19.6819 31.95C20.0152 31.95 20.3485 31.9467 20.6819 31.94C21.0152 31.9333 21.3185 31.9267 21.5919 31.92ZM25.5928 31.78C26.0328 31.78 26.3928 31.8467 26.6728 31.98C26.9595 32.1067 27.2128 32.2567 27.4328 32.43C27.5661 32.53 27.6661 32.5433 27.7328 32.47C27.8061 32.39 27.8561 32.2067 27.8828 31.92H28.1128C28.0995 32.1667 28.0895 32.4667 28.0828 32.82C28.0761 33.1733 28.0728 33.64 28.0728 34.22H27.8428C27.7961 33.9333 27.7528 33.7067 27.7128 33.54C27.6728 33.3667 27.6228 33.22 27.5628 33.1C27.5095 32.98 27.4361 32.86 27.3428 32.74C27.1361 32.4667 26.8761 32.27 26.5628 32.15C26.2495 32.0233 25.9195 31.96 25.5728 31.96C25.2461 31.96 24.9495 32.0433 24.6828 32.21C24.4228 32.37 24.1961 32.6033 24.0028 32.91C23.8161 33.2167 23.6695 33.5867 23.5628 34.02C23.4628 34.4533 23.4128 34.94 23.4128 35.48C23.4128 36.04 23.4695 36.5367 23.5828 36.97C23.6961 37.3967 23.8528 37.7567 24.0528 38.05C24.2595 38.3433 24.4995 38.5667 24.7728 38.72C25.0528 38.8667 25.3528 38.94 25.6728 38.94C25.9728 38.94 26.2861 38.88 26.6128 38.76C26.9395 38.64 27.1961 38.4467 27.3828 38.18C27.5295 37.9867 27.6295 37.7767 27.6828 37.55C27.7428 37.3233 27.7961 37.0067 27.8428 36.6H28.0728C28.0728 37.2067 28.0761 37.6967 28.0828 38.07C28.0895 38.4367 28.0995 38.7467 28.1128 39H27.8828C27.8561 38.7133 27.8095 38.5333 27.7428 38.46C27.6828 38.3867 27.5795 38.3967 27.4328 38.49C27.1861 38.6633 26.9228 38.8167 26.6428 38.95C26.3695 39.0767 26.0161 39.14 25.5828 39.14C24.9495 39.14 24.3928 38.9967 23.9128 38.71C23.4395 38.4233 23.0695 38.01 22.8028 37.47C22.5428 36.93 22.4128 36.28 22.4128 35.52C22.4128 34.7733 22.5495 34.12 22.8228 33.56C23.0961 33 23.4695 32.5633 23.9428 32.25C24.4228 31.9367 24.9728 31.78 25.5928 31.78ZM31.8376 31.98C32.0909 31.98 32.3009 32.01 32.4676 32.07C32.6342 32.1233 32.7709 32.1933 32.8776 32.28C32.9642 32.3467 33.0342 32.42 33.0876 32.5C33.1409 32.58 33.1809 32.66 33.2076 32.74C33.2342 32.82 33.2476 32.8967 33.2476 32.97C33.2476 33.1367 33.1876 33.2667 33.0676 33.36C32.9542 33.4533 32.8276 33.5 32.6876 33.5C32.5542 33.5 32.4342 33.4567 32.3276 33.37C32.2209 33.2833 32.1676 33.16 32.1676 33C32.1676 32.8533 32.2176 32.73 32.3176 32.63C32.4176 32.5233 32.5442 32.4633 32.6976 32.45C32.6709 32.3633 32.5876 32.29 32.4476 32.23C32.3142 32.1633 32.1442 32.13 31.9376 32.13C31.5976 32.13 31.3176 32.2333 31.0976 32.44C30.8842 32.64 30.7776 32.9333 30.7776 33.32C30.7776 33.5067 30.8109 33.6967 30.8776 33.89C30.9509 34.0833 31.0876 34.2733 31.2876 34.46C31.4009 34.44 31.5176 34.4267 31.6376 34.42C31.7576 34.4067 31.8476 34.4 31.9076 34.4C32.0276 34.4 32.1242 34.42 32.1976 34.46C32.2709 34.5 32.3076 34.5567 32.3076 34.63C32.3076 34.69 32.2809 34.7367 32.2276 34.77C32.1809 34.8033 32.1142 34.82 32.0276 34.82C31.9009 34.82 31.7676 34.7933 31.6276 34.74C31.4876 34.68 31.3776 34.6333 31.2976 34.6C30.9109 34.7133 30.5976 34.9 30.3576 35.16C30.1176 35.4133 29.9976 35.7733 29.9976 36.24C29.9976 36.7 30.1176 37.09 30.3576 37.41C30.5976 37.73 30.9176 37.9767 31.3176 38.15C31.7242 38.3167 32.1776 38.4 32.6776 38.4C33.0309 38.4 33.3642 38.36 33.6776 38.28C33.9976 38.1933 34.2776 38.07 34.5176 37.91C34.7642 37.75 34.9576 37.56 35.0976 37.34C35.2376 37.1133 35.3076 36.8567 35.3076 36.57C35.3076 36.4433 35.2809 36.2833 35.2276 36.09C35.1742 35.89 35.0642 35.6967 34.8976 35.51C34.7309 35.3167 34.4742 35.1667 34.1276 35.06L34.2476 34.96C34.7342 35.1067 35.0809 35.3433 35.2876 35.67C35.4942 35.99 35.5976 36.35 35.5976 36.75C35.5976 37.15 35.4776 37.5333 35.2376 37.9C34.9976 38.2667 34.6509 38.5667 34.1976 38.8C33.7442 39.0267 33.1942 39.14 32.5476 39.14C32.1142 39.14 31.7009 39.0833 31.3076 38.97C30.9209 38.8567 30.5776 38.6933 30.2776 38.48C29.9776 38.26 29.7409 37.9967 29.5676 37.69C29.3942 37.3833 29.3076 37.0367 29.3076 36.65C29.3076 36.29 29.3776 35.9833 29.5176 35.73C29.6576 35.47 29.8309 35.2567 30.0376 35.09C30.2442 34.9233 30.4509 34.7967 30.6576 34.71C30.8642 34.6167 31.0309 34.5533 31.1576 34.52C30.9376 34.42 30.7509 34.3033 30.5976 34.17C30.4509 34.03 30.3376 33.88 30.2576 33.72C30.1842 33.5533 30.1476 33.39 30.1476 33.23C30.1476 33.07 30.1842 32.9167 30.2576 32.77C30.3309 32.6167 30.4376 32.48 30.5776 32.36C30.7176 32.24 30.8909 32.1467 31.0976 32.08C31.3109 32.0133 31.5576 31.98 31.8376 31.98ZM35.4776 31.78C35.8909 31.78 36.2376 31.9 36.5176 32.14C36.7976 32.3733 36.9376 32.7033 36.9376 33.13C36.9376 33.3567 36.8942 33.56 36.8076 33.74C36.7276 33.9133 36.6142 34.0667 36.4676 34.2C36.3276 34.3333 36.1676 34.4433 35.9876 34.53C35.8342 34.6033 35.6309 34.6833 35.3776 34.77C35.1309 34.8567 34.8642 34.9433 34.5776 35.03C34.2976 35.1167 34.0276 35.2033 33.7676 35.29C33.5142 35.37 33.3076 35.44 33.1476 35.5C32.9009 35.5933 32.6909 35.71 32.5176 35.85C32.3509 35.9833 32.2676 36.1567 32.2676 36.37C32.2676 36.5433 32.3176 36.69 32.4176 36.81C32.5176 36.93 32.6376 37.02 32.7776 37.08C32.9242 37.14 33.0609 37.17 33.1876 37.17C33.2476 37.17 33.3209 37.1633 33.4076 37.15C33.5009 37.13 33.5842 37.1033 33.6576 37.07C33.7309 37.0367 33.7742 36.9967 33.7876 36.95C33.6809 36.93 33.5742 36.8833 33.4676 36.81C33.3676 36.73 33.3176 36.6067 33.3176 36.44C33.3176 36.28 33.3709 36.1533 33.4776 36.06C33.5842 35.9667 33.7142 35.92 33.8676 35.92C34.0276 35.92 34.1542 35.97 34.2476 36.07C34.3476 36.17 34.3976 36.3 34.3976 36.46C34.3976 36.6467 34.3342 36.8067 34.2076 36.94C34.0876 37.0667 33.9342 37.1633 33.7476 37.23C33.5676 37.29 33.3876 37.32 33.2076 37.32C33.0209 37.32 32.8309 37.28 32.6376 37.2C32.4442 37.12 32.2842 36.9967 32.1576 36.83C32.0309 36.6567 31.9676 36.43 31.9676 36.15C31.9676 35.9167 32.0176 35.71 32.1176 35.53C32.2242 35.35 32.3809 35.19 32.5876 35.05C32.7942 34.91 33.0476 34.79 33.3476 34.69C33.5476 34.6233 33.7909 34.55 34.0776 34.47C34.3642 34.39 34.6576 34.3033 34.9576 34.21C35.2642 34.1167 35.5409 34.0133 35.7876 33.9C36.1209 33.7467 36.3476 33.59 36.4676 33.43C36.5876 33.27 36.6476 33.1067 36.6476 32.94C36.6476 32.7467 36.5942 32.5767 36.4876 32.43C36.3809 32.2767 36.2376 32.1567 36.0576 32.07C35.8842 31.9767 35.6942 31.93 35.4876 31.93C35.4076 31.93 35.3409 31.9367 35.2876 31.95C35.2342 31.9633 35.2009 31.9867 35.1876 32.02C35.2809 32.0667 35.3509 32.1333 35.3976 32.22C35.4442 32.3067 35.4676 32.3933 35.4676 32.48C35.4676 32.62 35.4109 32.7367 35.2976 32.83C35.1909 32.9233 35.0609 32.97 34.9076 32.97C34.7809 32.97 34.6609 32.93 34.5476 32.85C34.4342 32.7633 34.3776 32.6367 34.3776 32.47C34.3776 32.2967 34.4342 32.16 34.5476 32.06C34.6676 31.96 34.8109 31.89 34.9776 31.85C35.1509 31.8033 35.3176 31.78 35.4776 31.78ZM39.6967 31.81C40.0301 31.81 40.2834 31.85 40.4567 31.93C40.6301 32.0033 40.7834 32.0867 40.9167 32.18C40.9967 32.2267 41.0601 32.2633 41.1067 32.29C41.1601 32.31 41.2101 32.32 41.2567 32.32C41.3234 32.32 41.3701 32.2833 41.3967 32.21C41.4301 32.1367 41.4567 32.0267 41.4767 31.88H41.7067C41.7001 31.9933 41.6901 32.13 41.6767 32.29C41.6701 32.4433 41.6634 32.65 41.6567 32.91C41.6567 33.1633 41.6567 33.5 41.6567 33.92H41.4267C41.4067 33.6 41.3367 33.2933 41.2167 33C41.0967 32.7067 40.9201 32.4667 40.6867 32.28C40.4601 32.0933 40.1601 32 39.7867 32C39.4334 32 39.1401 32.1067 38.9067 32.32C38.6801 32.5333 38.5667 32.8133 38.5667 33.16C38.5667 33.46 38.6434 33.7133 38.7967 33.92C38.9501 34.12 39.1534 34.3033 39.4067 34.47C39.6667 34.63 39.9467 34.8033 40.2467 34.99C40.5934 35.2033 40.9001 35.4167 41.1667 35.63C41.4401 35.8367 41.6534 36.0667 41.8067 36.32C41.9667 36.5733 42.0467 36.88 42.0467 37.24C42.0467 37.6667 41.9501 38.02 41.7567 38.3C41.5634 38.58 41.3067 38.79 40.9867 38.93C40.6667 39.07 40.3134 39.14 39.9267 39.14C39.5734 39.14 39.2934 39.1 39.0867 39.02C38.8801 38.94 38.7034 38.8567 38.5567 38.77C38.4101 38.6767 38.2967 38.63 38.2167 38.63C38.1501 38.63 38.1001 38.6667 38.0667 38.74C38.0401 38.8133 38.0167 38.9233 37.9967 39.07H37.7667C37.7801 38.93 37.7867 38.7667 37.7867 38.58C37.7934 38.3867 37.7967 38.1367 37.7967 37.83C37.8034 37.5233 37.8067 37.1367 37.8067 36.67H38.0367C38.0634 37.07 38.1367 37.4433 38.2567 37.79C38.3834 38.1367 38.5734 38.4167 38.8267 38.63C39.0867 38.8367 39.4301 38.94 39.8567 38.94C40.0767 38.94 40.2834 38.8967 40.4767 38.81C40.6767 38.7167 40.8401 38.5733 40.9667 38.38C41.0934 38.18 41.1567 37.9233 41.1567 37.61C41.1567 37.3367 41.0901 37.1 40.9567 36.9C40.8301 36.6933 40.6501 36.5033 40.4167 36.33C40.1834 36.15 39.9101 35.9667 39.5967 35.78C39.2834 35.5867 38.9901 35.39 38.7167 35.19C38.4434 34.99 38.2234 34.76 38.0567 34.5C37.8967 34.2333 37.8167 33.9133 37.8167 33.54C37.8167 33.1467 37.9034 32.8233 38.0767 32.57C38.2567 32.31 38.4901 32.12 38.7767 32C39.0634 31.8733 39.3701 31.81 39.6967 31.81ZM44.4171 33.74V39.88C44.4171 40.1667 44.5004 40.3567 44.6671 40.45C44.8404 40.55 45.0771 40.6 45.3771 40.6V40.81C45.2304 40.8033 45.0271 40.7933 44.7671 40.78C44.5071 40.7733 44.2304 40.77 43.9371 40.77C43.7304 40.77 43.5238 40.7733 43.3171 40.78C43.1171 40.7933 42.9638 40.8033 42.8571 40.81V40.6C43.0971 40.6 43.2671 40.5567 43.3671 40.47C43.4671 40.3833 43.5171 40.22 43.5171 39.98V34.94C43.5171 34.64 43.4638 34.42 43.3571 34.28C43.2504 34.1333 43.0504 34.06 42.7571 34.06V33.85C42.9704 33.87 43.1771 33.88 43.3771 33.88C43.5704 33.88 43.7538 33.87 43.9271 33.85C44.1071 33.8233 44.2704 33.7867 44.4171 33.74ZM46.0171 33.71C46.3704 33.71 46.6871 33.8067 46.9671 34C47.2471 34.1867 47.4671 34.4633 47.6271 34.83C47.7938 35.1967 47.8771 35.65 47.8771 36.19C47.8771 36.55 47.8338 36.9067 47.7471 37.26C47.6604 37.6067 47.5238 37.9233 47.3371 38.21C47.1571 38.49 46.9204 38.7167 46.6271 38.89C46.3404 39.0567 45.9938 39.14 45.5871 39.14C45.2738 39.14 45.0004 39.0667 44.7671 38.92C44.5404 38.7733 44.3871 38.5967 44.3071 38.39L44.4071 38.25C44.5004 38.4367 44.6338 38.5933 44.8071 38.72C44.9871 38.8467 45.2104 38.91 45.4771 38.91C45.8504 38.91 46.1404 38.7933 46.3471 38.56C46.5538 38.3267 46.6971 38.0167 46.7771 37.63C46.8638 37.2367 46.9071 36.8033 46.9071 36.33C46.9071 35.7967 46.8638 35.36 46.7771 35.02C46.6904 34.68 46.5604 34.4267 46.3871 34.26C46.2138 34.0933 46.0004 34.01 45.7471 34.01C45.4204 34.01 45.1238 34.1467 44.8571 34.42C44.5904 34.6867 44.4204 35.0933 44.3471 35.64L44.2271 35.5C44.3004 34.9333 44.5004 34.4933 44.8271 34.18C45.1604 33.8667 45.5571 33.71 46.0171 33.71ZM50.0577 39.07C49.7843 39.07 49.5477 39.02 49.3477 38.92C49.1477 38.8133 48.9943 38.6667 48.8877 38.48C48.7877 38.2933 48.7377 38.0767 48.7377 37.83C48.7377 37.5367 48.8043 37.2967 48.9377 37.11C49.0777 36.9233 49.2543 36.7733 49.4677 36.66C49.681 36.5467 49.9043 36.4533 50.1377 36.38C50.3777 36.3 50.6043 36.2267 50.8177 36.16C51.031 36.0867 51.2043 36.0033 51.3377 35.91C51.4777 35.8167 51.5477 35.6933 51.5477 35.54V34.92C51.5477 34.64 51.5043 34.4267 51.4177 34.28C51.3377 34.1333 51.2277 34.0367 51.0877 33.99C50.9477 33.9367 50.791 33.91 50.6177 33.91C50.451 33.91 50.271 33.9333 50.0777 33.98C49.891 34.0267 49.741 34.1233 49.6277 34.27C49.7543 34.2967 49.8643 34.3633 49.9577 34.47C50.051 34.5767 50.0977 34.7133 50.0977 34.88C50.0977 35.0467 50.0443 35.18 49.9377 35.28C49.831 35.3733 49.6943 35.42 49.5277 35.42C49.3343 35.42 49.191 35.36 49.0977 35.24C49.011 35.1133 48.9677 34.9733 48.9677 34.82C48.9677 34.6467 49.011 34.5067 49.0977 34.4C49.1843 34.2933 49.2943 34.1933 49.4277 34.1C49.581 33.9933 49.7777 33.9033 50.0177 33.83C50.2643 33.75 50.541 33.71 50.8477 33.71C51.121 33.71 51.3543 33.7433 51.5477 33.81C51.741 33.87 51.901 33.96 52.0277 34.08C52.201 34.24 52.3143 34.4367 52.3677 34.67C52.421 34.8967 52.4477 35.17 52.4477 35.49V38.27C52.4477 38.4367 52.471 38.5567 52.5177 38.63C52.571 38.7033 52.651 38.74 52.7577 38.74C52.831 38.74 52.901 38.7233 52.9677 38.69C53.0343 38.6567 53.1143 38.6033 53.2077 38.53L53.3177 38.7C53.1777 38.8067 53.0443 38.8967 52.9177 38.97C52.791 39.0367 52.621 39.07 52.4077 39.07C52.2143 39.07 52.0543 39.0367 51.9277 38.97C51.801 38.9033 51.7043 38.8067 51.6377 38.68C51.5777 38.5467 51.5477 38.38 51.5477 38.18C51.3677 38.48 51.151 38.7033 50.8977 38.85C50.651 38.9967 50.371 39.07 50.0577 39.07ZM50.4177 38.67C50.6377 38.67 50.841 38.6067 51.0277 38.48C51.221 38.3533 51.3943 38.1633 51.5477 37.91V35.95C51.4677 36.0633 51.351 36.16 51.1977 36.24C51.0443 36.3133 50.8777 36.39 50.6977 36.47C50.5177 36.5433 50.3443 36.6333 50.1777 36.74C50.0177 36.84 49.8843 36.9733 49.7777 37.14C49.671 37.3067 49.6177 37.5233 49.6177 37.79C49.6177 38.0567 49.6877 38.27 49.8277 38.43C49.9743 38.59 50.171 38.67 50.4177 38.67Z" fill="#757575"/>
<defs>
<clipPath id="clip0_213_2044">
<rect width="70" height="70" fill="white"/>
</clipPath>
</defs>
</svg>
