<svg width="88" height="90" viewBox="0 0 88 90" fill="none" xmlns="http://www.w3.org/2000/svg">
<path d="M86.2101 32.9334C84.9063 31.6628 82.9782 30.9354 80.9211 30.9354H64.1655V27.927C64.1655 23.5212 59.9389 19.9364 54.7439 19.9364H53.1208V19.7125C53.1208 16.5635 50.1774 13.9892 46.5012 13.8589V10.8627C48.0405 10.5572 49.377 10.118 50.5008 9.53991C52.5886 8.46536 53.4933 7.16688 53.8842 6.26767C54.7562 4.25919 53.8391 1.95733 51.7964 1.02861C51.2152 0.76648 50.599 0.632812 49.9624 0.632812C48.5767 0.632812 47.2749 1.28553 46.489 2.35312C46.0919 2.57359 44.573 3.23846 40.7025 3.23846H31.0597C26.1616 3.23846 23.118 6.07845 23.118 10.6526C23.118 12.8938 25.0216 14.7183 27.3632 14.7183C29.4489 14.7183 31.1887 13.2704 31.5428 11.3696H36.1748V13.8589C32.4987 13.9892 29.5553 16.5635 29.5553 19.7125V19.9364H27.9302C22.7352 19.9364 18.5085 23.5212 18.5085 27.927V28.045H12.4375C9.74384 28.045 7.55167 29.9042 7.55167 32.1887V40.0195C6.07998 41.0871 5.14457 42.6703 5.14457 44.4392V47.0205C2.35266 48.7114 0.451138 51.4125 0.207557 54.5111C0.103167 55.8704 0.0294802 57.3112 -0.00940921 58.7902C-0.027831 59.5384 0.670147 60.1581 1.55234 60.1754C2.43248 60.1929 3.16526 59.5991 3.18369 58.851C3.22052 57.4119 3.29216 56.0127 3.3945 54.6899C3.60738 51.9541 5.59692 49.6435 8.36016 48.55C8.38064 48.543 8.39907 48.5342 8.41748 48.5274C9.52277 48.102 10.7468 47.8729 11.9606 47.8729H20.3363C21.5541 47.8729 22.7721 48.102 23.8794 48.5274C23.8999 48.5342 23.9183 48.543 23.9367 48.55C26.7306 49.6488 28.6977 52.0808 28.9024 54.6899C29.064 56.747 29.144 58.8613 29.144 60.9705C29.144 61.9687 29.1112 62.9651 29.0866 63.9616C29.0846 63.9962 29.0846 64.031 29.0824 64.0674C29.0682 64.4199 27.9118 65.392 27.6701 65.7566C27.273 66.3554 26.9517 66.9856 26.7142 67.6418C26.174 69.1312 26.0592 70.7023 26.0266 72.2507C25.9795 74.5699 26.2517 76.8995 26.8555 79.1632C26.8576 79.1736 26.8596 79.1823 26.8637 79.1927C25.8547 81.5466 23.2592 83.1038 20.2831 83.1038H12.0138C8.72452 83.1038 5.84254 81.1143 5.15685 78.3733C4.06997 74.0248 3.41907 69.2562 3.22052 64.1976C3.19187 63.4495 2.44886 62.8627 1.57077 62.8888C0.688564 62.913 -0.00326903 63.5397 0.0274331 64.2879C0.232119 69.5045 0.907586 74.4327 2.0313 78.9358C3.02608 82.9215 7.22622 85.8153 12.0138 85.8153H20.2872C23.3983 85.8153 26.223 84.647 28.1123 82.7218C29.1214 85.0011 30.4805 87.1155 32.161 88.9834C32.4639 89.3185 32.9327 89.5163 33.43 89.5163H63.5781C64.0755 89.5163 64.5462 89.3185 64.8471 88.9834C65.3343 88.4435 65.7928 87.8811 66.2246 87.303H79.9612C80.8433 87.303 81.5597 86.6972 81.5597 85.9472V74.7608L85.3526 51.5236C85.4734 50.7823 84.8634 50.0984 83.9893 49.996C83.1133 49.8936 82.3088 50.4108 82.1881 51.1521L79.1547 69.7405H70.8035C70.6949 68.85 70.4658 67.9716 70.0953 67.1331C68.9573 64.5605 66.6279 62.5312 63.707 61.4722L63.6497 61.1163L59.6706 36.7368C59.6564 36.65 59.6482 36.5615 59.644 36.4747C59.644 36.4696 59.644 36.466 59.644 36.4608C59.6154 35.5841 60.17 34.7943 60.9766 34.2753C61.6254 33.8586 62.4769 33.6469 63.2854 33.6469H80.9231C82.0551 33.6469 83.1051 34.0357 83.8031 34.7144C84.3967 35.2925 84.6586 36.0112 84.5399 36.7351L83.0724 45.729C82.9516 46.4703 83.5616 47.1543 84.4355 47.2567C85.3096 47.3591 86.116 46.8418 86.2367 46.1005L87.7044 37.1049C87.95 35.5929 87.4199 34.1104 86.2101 32.9334ZM31.0577 8.65806C30.3208 8.65806 29.4059 8.72922 28.8757 9.22397C28.4602 9.61109 28.4112 10.1544 28.4112 10.6526C28.4112 11.4512 27.8584 12.0084 27.3612 12.0084C26.8637 12.0084 26.3111 11.4512 26.3111 10.6526C26.3111 6.5593 29.2851 5.94999 31.0577 5.94999H40.7005C42.1906 5.94999 43.7379 5.87014 45.2178 5.59933C46.493 5.36498 47.9197 5.01779 48.8572 4.20537C49.1989 3.90853 49.3648 3.34608 49.9604 3.34608C50.0668 3.34608 50.1712 3.37038 50.2797 3.419C50.8446 3.67591 51.2212 4.54909 50.8795 5.33373C50.6052 5.96562 49.416 7.75189 44.6774 8.41155C44.6652 8.41329 44.655 8.41329 44.6426 8.41502C43.3409 8.59556 42.0187 8.65979 40.7005 8.65979H37.7713L31.0577 8.65806ZM43.302 11.2793V13.8503H39.37V11.3679C39.3741 11.4269 43.302 11.3071 43.302 11.2793ZM36.4635 16.5601H37.7713H44.9005H46.2085C48.2554 16.5601 49.9215 17.9731 49.9215 19.7091V19.933H32.7504V19.7091C32.7504 17.9731 34.4166 16.5601 36.4635 16.5601ZM10.7488 32.1939C10.7488 32.1922 10.7488 32.1887 10.7488 32.1869C10.7488 31.3971 11.5062 30.7548 12.4375 30.7548H19.8615C19.8983 30.7548 19.9331 30.7583 19.9679 30.76C19.976 30.76 19.9822 30.7617 19.9883 30.7617C21.8612 30.8781 21.5501 32.7268 21.5501 33.8378C21.5501 35.1867 21.5501 36.5355 21.5501 37.8843C21.5501 38.1638 21.5501 38.4416 21.5501 38.721C21.1387 38.6568 20.719 38.6239 20.2995 38.6239C20.2995 38.6239 12.0015 38.6239 11.9974 38.6239C11.6106 38.6239 11.1582 38.7193 10.7509 38.7088C10.6301 36.5511 10.7488 34.3568 10.7488 32.1939ZM23.9593 45.644C23.9593 45.2499 20.7866 45.1596 20.3363 45.1596H11.9647C10.7386 45.1596 9.50846 45.3245 8.34175 45.644C8.34175 45.644 8.34175 44.4375 8.34175 44.4357C8.34175 42.7606 10.0243 41.3318 12.0015 41.3318H20.3035C21.5051 41.3318 22.6656 41.8596 23.3369 42.7033C24.0371 43.5834 23.9593 44.6319 23.9593 45.644ZM68.6891 83.3103C68.7136 83.2427 68.7321 83.1906 68.7464 83.1576C69.3011 81.8279 69.7964 80.4739 70.1587 79.0955C70.7319 76.9186 71.0122 74.6775 70.9816 72.4469H78.3646V74.6636V84.588C78.3646 84.588 67.9748 84.588 67.9706 84.588C68.2449 84.5897 68.5478 83.7061 68.6891 83.3103ZM66.9738 67.8292H59.4291C58.547 67.8292 57.8306 68.4351 57.8306 69.185C57.8306 69.935 58.5449 70.5408 59.4291 70.5408H67.6779C67.6841 70.598 67.6881 70.657 67.6943 70.7143C68.1917 76.3284 66.6566 82.1819 62.7716 86.8047H34.2385C32.2797 84.4751 30.8612 81.741 30.0405 78.7899C29.2933 76.101 29.06 73.2939 29.3301 70.5408H53.0368C53.9189 70.5408 54.6354 69.935 54.6354 69.185C54.6354 68.4351 53.9211 67.8292 53.0368 67.8292H30.0303C30.4437 66.9977 31.0413 66.2356 31.8027 65.576C33.3973 64.1942 35.6754 63.3714 37.9822 63.3714H59.026C59.7566 63.3714 60.4771 63.4512 61.1711 63.6057C63.7296 64.1698 65.9259 65.7218 66.9738 67.8292ZM60.9684 31.2565C60.9684 31.2479 59.0628 32.095 58.8806 32.2164C55.7447 34.3361 56.5533 37.433 57.0303 40.358L60.3543 60.724C60.3441 60.7223 60.3338 60.7223 60.3216 60.7223C60.1394 60.705 59.9551 60.6928 59.771 60.6824C59.73 60.6807 59.6912 60.6772 59.6502 60.6755C59.4435 60.6668 59.2347 60.6599 59.0238 60.6599H37.9822C36.969 60.6599 35.9579 60.7709 34.9774 60.988C34.5006 61.0938 34.0298 61.224 33.5733 61.3768C33.4054 61.4341 32.3391 61.7483 32.3369 61.8663C32.3411 61.5642 32.3411 61.2657 32.3411 60.9671C32.3411 58.7972 32.2572 56.6237 32.0914 54.5076C31.9706 52.9644 31.4138 51.442 30.4948 50.1071C30.0773 49.5012 29.584 48.9318 29.0272 48.4128C28.7387 48.1437 28.4336 47.8885 28.1123 47.6489C27.9916 47.5587 27.1544 47.1004 27.1544 47.0049V44.434C27.1544 42.7623 26.264 41.1044 24.7473 40.0109V32.1852C24.7473 32.088 24.7411 31.9926 24.7329 31.8971C24.7309 31.878 24.7289 31.8571 24.7268 31.8381C24.5713 30.2566 23.3657 28.9252 21.7036 28.3488V27.9235C21.7036 25.0123 24.4975 22.6428 27.9302 22.6428H31.1519H51.5181H54.7398C58.1723 22.6428 60.9663 25.0123 60.9663 27.9235C60.9684 27.9253 60.9684 31.2565 60.9684 31.2565Z" fill="#151717"/>
</svg>
