<svg width="169" height="42" viewBox="0 0 169 42" fill="none" xmlns="http://www.w3.org/2000/svg">
<path d="M25.9134 1.14C25.7934 2.28 25.7034 3.39 25.6434 4.47C25.6134 5.52 25.5984 6.33 25.5984 6.9C25.5984 7.62 25.6134 8.295 25.6434 8.925C25.6734 9.555 25.7034 10.11 25.7334 10.59H24.6984C24.4884 8.49 24.2034 6.84 23.8434 5.64C23.4834 4.41 22.8534 3.525 21.9534 2.985C21.0534 2.445 19.6584 2.175 17.7684 2.175H15.3384V27.78C15.3384 28.98 15.4434 29.88 15.6534 30.48C15.8934 31.08 16.3434 31.485 17.0034 31.695C17.6634 31.905 18.6234 32.04 19.8834 32.1V33C19.1034 32.94 18.1134 32.91 16.9134 32.91C15.7134 32.88 14.4984 32.865 13.2684 32.865C11.9184 32.865 10.6434 32.88 9.44344 32.91C8.27344 32.91 7.32844 32.94 6.60844 33V32.1C7.86844 32.04 8.82844 31.905 9.48844 31.695C10.1484 31.485 10.5834 31.08 10.7934 30.48C11.0334 29.88 11.1534 28.98 11.1534 27.78V2.175H8.72344C6.86344 2.175 5.46844 2.445 4.53844 2.985C3.63844 3.525 3.00844 4.41 2.64844 5.64C2.28844 6.84 2.00344 8.49 1.79344 10.59H0.758437C0.818438 10.11 0.848438 9.555 0.848438 8.925C0.878438 8.295 0.893438 7.62 0.893438 6.9C0.893438 6.33 0.863438 5.52 0.803438 4.47C0.773438 3.39 0.698438 2.28 0.578438 1.14C1.83844 1.17 3.20344 1.2 4.67344 1.23C6.17344 1.26 7.67344 1.275 9.17344 1.275C10.6734 1.275 12.0384 1.275 13.2684 1.275C14.4984 1.275 15.8484 1.275 17.3184 1.275C18.8184 1.275 20.3184 1.26 21.8184 1.23C23.3184 1.2 24.6834 1.17 25.9134 1.14ZM43.9177 0.509997C45.8977 0.509997 47.5177 0.809998 48.7777 1.41C50.0677 1.98 51.2077 2.655 52.1977 3.435C52.7977 3.885 53.2477 3.945 53.5477 3.615C53.8777 3.255 54.1027 2.43 54.2227 1.14H55.2577C55.1977 2.25 55.1527 3.6 55.1227 5.19C55.0927 6.78 55.0777 8.88 55.0777 11.49H54.0427C53.8327 10.2 53.6377 9.18 53.4577 8.43C53.2777 7.65 53.0527 6.99 52.7827 6.45C52.5427 5.91 52.2127 5.37 51.7927 4.83C50.8627 3.6 49.6927 2.715 48.2827 2.175C46.8727 1.605 45.3877 1.32 43.8277 1.32C42.3577 1.32 41.0227 1.695 39.8227 2.445C38.6527 3.165 37.6327 4.215 36.7627 5.595C35.9227 6.975 35.2627 8.64 34.7827 10.59C34.3327 12.54 34.1077 14.73 34.1077 17.16C34.1077 19.68 34.3627 21.915 34.8727 23.865C35.3827 25.785 36.0877 27.405 36.9877 28.725C37.9177 30.045 38.9977 31.05 40.2277 31.74C41.4877 32.4 42.8377 32.73 44.2777 32.73C45.6277 32.73 47.0377 32.46 48.5077 31.92C49.9777 31.38 51.1327 30.51 51.9727 29.31C52.6327 28.44 53.0827 27.495 53.3227 26.475C53.5927 25.455 53.8327 24.03 54.0427 22.2H55.0777C55.0777 24.93 55.0927 27.135 55.1227 28.815C55.1527 30.465 55.1977 31.86 55.2577 33H54.2227C54.1027 31.71 53.8927 30.9 53.5927 30.57C53.3227 30.24 52.8577 30.285 52.1977 30.705C51.0877 31.485 49.9027 32.175 48.6427 32.775C47.4127 33.345 45.8227 33.63 43.8727 33.63C41.0227 33.63 38.5177 32.985 36.3577 31.695C34.2277 30.405 32.5627 28.545 31.3627 26.115C30.1927 23.685 29.6077 20.76 29.6077 17.34C29.6077 13.98 30.2227 11.04 31.4527 8.52C32.6827 6 34.3627 4.035 36.4927 2.625C38.6527 1.215 41.1277 0.509997 43.9177 0.509997ZM72.0191 1.41C73.1591 1.41 74.1041 1.545 74.8541 1.815C75.6041 2.055 76.2191 2.37 76.6991 2.76C77.0891 3.06 77.4041 3.39 77.6441 3.75C77.8841 4.11 78.0641 4.47 78.1841 4.83C78.3041 5.19 78.3641 5.535 78.3641 5.865C78.3641 6.615 78.0941 7.2 77.5541 7.62C77.0441 8.04 76.4741 8.25 75.8441 8.25C75.2441 8.25 74.7041 8.055 74.2241 7.665C73.7441 7.275 73.5041 6.72 73.5041 6C73.5041 5.34 73.7291 4.785 74.1791 4.335C74.6291 3.855 75.1991 3.585 75.8891 3.525C75.7691 3.135 75.3941 2.805 74.7641 2.535C74.1641 2.235 73.3991 2.085 72.4691 2.085C70.9391 2.085 69.6791 2.55 68.6891 3.48C67.7291 4.38 67.2491 5.7 67.2491 7.44C67.2491 8.28 67.3991 9.135 67.6991 10.005C68.0291 10.875 68.6441 11.73 69.5441 12.57C70.0541 12.48 70.5791 12.42 71.1191 12.39C71.6591 12.33 72.0641 12.3 72.3341 12.3C72.8741 12.3 73.3091 12.39 73.6391 12.57C73.9691 12.75 74.1341 13.005 74.1341 13.335C74.1341 13.605 74.0141 13.815 73.7741 13.965C73.5641 14.115 73.2641 14.19 72.8741 14.19C72.3041 14.19 71.7041 14.07 71.0741 13.83C70.4441 13.56 69.9491 13.35 69.5891 13.2C67.8491 13.71 66.4391 14.55 65.3591 15.72C64.2791 16.86 63.7391 18.48 63.7391 20.58C63.7391 22.65 64.2791 24.405 65.3591 25.845C66.4391 27.285 67.8791 28.395 69.6791 29.175C71.5091 29.925 73.5491 30.3 75.7991 30.3C77.3891 30.3 78.8891 30.12 80.2991 29.76C81.7391 29.37 82.9991 28.815 84.0791 28.095C85.1891 27.375 86.0591 26.52 86.6891 25.53C87.3191 24.51 87.6341 23.355 87.6341 22.065C87.6341 21.495 87.5141 20.775 87.2741 19.905C87.0341 19.005 86.5391 18.135 85.7891 17.295C85.0391 16.425 83.8841 15.75 82.3241 15.27L82.8641 14.82C85.0541 15.48 86.6141 16.545 87.5441 18.015C88.4741 19.455 88.9391 21.075 88.9391 22.875C88.9391 24.675 88.3991 26.4 87.3191 28.05C86.2391 29.7 84.6791 31.05 82.6391 32.1C80.5991 33.12 78.1241 33.63 75.2141 33.63C73.2641 33.63 71.4041 33.375 69.6341 32.865C67.8941 32.355 66.3491 31.62 64.9991 30.66C63.6491 29.67 62.5841 28.485 61.8041 27.105C61.0241 25.725 60.6341 24.165 60.6341 22.425C60.6341 20.805 60.9491 19.425 61.5791 18.285C62.2091 17.115 62.9891 16.155 63.9191 15.405C64.8491 14.655 65.7791 14.085 66.7091 13.695C67.6391 13.275 68.3891 12.99 68.9591 12.84C67.9691 12.39 67.1291 11.865 66.4391 11.265C65.7791 10.635 65.2691 9.96 64.9091 9.24C64.5791 8.49 64.4141 7.755 64.4141 7.035C64.4141 6.315 64.5791 5.625 64.9091 4.965C65.2391 4.275 65.7191 3.66 66.3491 3.12C66.9791 2.58 67.7591 2.16 68.6891 1.86C69.6491 1.56 70.7591 1.41 72.0191 1.41ZM88.3991 0.509997C90.2591 0.509997 91.8191 1.05 93.0791 2.13C94.3391 3.18 94.9691 4.665 94.9691 6.585C94.9691 7.605 94.7741 8.52 94.3841 9.33C94.0241 10.11 93.5141 10.8 92.8541 11.4C92.2241 12 91.5041 12.495 90.6941 12.885C90.0041 13.215 89.0891 13.575 87.9491 13.965C86.8391 14.355 85.6391 14.745 84.3491 15.135C83.0891 15.525 81.8741 15.915 80.7041 16.305C79.5641 16.665 78.6341 16.98 77.9141 17.25C76.8041 17.67 75.8591 18.195 75.0791 18.825C74.3291 19.425 73.9541 20.205 73.9541 21.165C73.9541 21.945 74.1791 22.605 74.6291 23.145C75.0791 23.685 75.6191 24.09 76.2491 24.36C76.9091 24.63 77.5241 24.765 78.0941 24.765C78.3641 24.765 78.6941 24.735 79.0841 24.675C79.5041 24.585 79.8791 24.465 80.2091 24.315C80.5391 24.165 80.7341 23.985 80.7941 23.775C80.3141 23.685 79.8341 23.475 79.3541 23.145C78.9041 22.785 78.6791 22.23 78.6791 21.48C78.6791 20.76 78.9191 20.19 79.3991 19.77C79.8791 19.35 80.4641 19.14 81.1541 19.14C81.8741 19.14 82.4441 19.365 82.8641 19.815C83.3141 20.265 83.5391 20.85 83.5391 21.57C83.5391 22.41 83.2541 23.13 82.6841 23.73C82.1441 24.3 81.4541 24.735 80.6141 25.035C79.8041 25.305 78.9941 25.44 78.1841 25.44C77.3441 25.44 76.4891 25.26 75.6191 24.9C74.7491 24.54 74.0291 23.985 73.4591 23.235C72.8891 22.455 72.6041 21.435 72.6041 20.175C72.6041 19.125 72.8291 18.195 73.2791 17.385C73.7591 16.575 74.4641 15.855 75.3941 15.225C76.3241 14.595 77.4641 14.055 78.8141 13.605C79.7141 13.305 80.8091 12.975 82.0991 12.615C83.3891 12.255 84.7091 11.865 86.0591 11.445C87.4391 11.025 88.6841 10.56 89.7941 10.05C91.2941 9.36 92.3141 8.655 92.8541 7.935C93.3941 7.215 93.6641 6.48 93.6641 5.73C93.6641 4.86 93.4241 4.095 92.9441 3.435C92.4641 2.745 91.8191 2.205 91.0091 1.815C90.2291 1.395 89.3741 1.185 88.4441 1.185C88.0841 1.185 87.7841 1.215 87.5441 1.275C87.3041 1.335 87.1541 1.44 87.0941 1.59C87.5141 1.8 87.8291 2.1 88.0391 2.49C88.2491 2.88 88.3541 3.27 88.3541 3.66C88.3541 4.29 88.0991 4.815 87.5891 5.235C87.1091 5.655 86.5241 5.865 85.8341 5.865C85.2641 5.865 84.7241 5.685 84.2141 5.325C83.7041 4.935 83.4491 4.365 83.4491 3.615C83.4491 2.835 83.7041 2.22 84.2141 1.77C84.7541 1.32 85.3991 1.005 86.1491 0.824998C86.9291 0.614998 87.6791 0.509997 88.3991 0.509997ZM107.385 0.644998C108.885 0.644998 110.025 0.824998 110.805 1.185C111.585 1.515 112.275 1.89 112.875 2.31C113.235 2.52 113.52 2.685 113.73 2.805C113.97 2.895 114.195 2.94 114.405 2.94C114.705 2.94 114.915 2.775 115.035 2.445C115.185 2.115 115.305 1.62 115.395 0.959999H116.43C116.4 1.47 116.355 2.085 116.295 2.805C116.265 3.495 116.235 4.425 116.205 5.595C116.205 6.735 116.205 8.25 116.205 10.14H115.17C115.08 8.7 114.765 7.32 114.225 6C113.685 4.68 112.89 3.6 111.84 2.76C110.82 1.92 109.47 1.5 107.79 1.5C106.2 1.5 104.88 1.98 103.83 2.94C102.81 3.9 102.3 5.16 102.3 6.72C102.3 8.07 102.645 9.21 103.335 10.14C104.025 11.04 104.94 11.865 106.08 12.615C107.25 13.335 108.51 14.115 109.86 14.955C111.42 15.915 112.8 16.875 114 17.835C115.23 18.765 116.19 19.8 116.88 20.94C117.6 22.08 117.96 23.46 117.96 25.08C117.96 27 117.525 28.59 116.655 29.85C115.785 31.11 114.63 32.055 113.19 32.685C111.75 33.315 110.16 33.63 108.42 33.63C106.83 33.63 105.57 33.45 104.64 33.09C103.71 32.73 102.915 32.355 102.255 31.965C101.595 31.545 101.085 31.335 100.725 31.335C100.425 31.335 100.2 31.5 100.05 31.83C99.9302 32.16 99.8252 32.655 99.7352 33.315H98.7002C98.7602 32.685 98.7902 31.95 98.7902 31.11C98.8202 30.24 98.8352 29.115 98.8352 27.735C98.8652 26.355 98.8802 24.615 98.8802 22.515H99.9152C100.035 24.315 100.365 25.995 100.905 27.555C101.475 29.115 102.33 30.375 103.47 31.335C104.64 32.265 106.185 32.73 108.105 32.73C109.095 32.73 110.025 32.535 110.895 32.145C111.795 31.725 112.53 31.08 113.1 30.21C113.67 29.31 113.955 28.155 113.955 26.745C113.955 25.515 113.655 24.45 113.055 23.55C112.485 22.62 111.675 21.765 110.625 20.985C109.575 20.175 108.345 19.35 106.935 18.51C105.525 17.64 104.205 16.755 102.975 15.855C101.745 14.955 100.755 13.92 100.005 12.75C99.2852 11.55 98.9252 10.11 98.9252 8.43C98.9252 6.66 99.3152 5.205 100.095 4.065C100.905 2.895 101.955 2.04 103.245 1.5C104.535 0.929998 105.915 0.644998 107.385 0.644998ZM128.627 9.33V36.96C128.627 38.25 129.002 39.105 129.752 39.525C130.532 39.975 131.597 40.2 132.947 40.2V41.145C132.287 41.115 131.372 41.07 130.202 41.01C129.032 40.98 127.787 40.965 126.467 40.965C125.537 40.965 124.607 40.98 123.677 41.01C122.777 41.07 122.087 41.115 121.607 41.145V40.2C122.687 40.2 123.452 40.005 123.902 39.615C124.352 39.225 124.577 38.49 124.577 37.41V14.73C124.577 13.38 124.337 12.39 123.857 11.76C123.377 11.1 122.477 10.77 121.157 10.77V9.825C122.117 9.915 123.047 9.96 123.947 9.96C124.817 9.96 125.642 9.915 126.422 9.825C127.232 9.705 127.967 9.54 128.627 9.33ZM135.827 9.195C137.417 9.195 138.842 9.63 140.102 10.5C141.362 11.34 142.352 12.585 143.072 14.235C143.822 15.885 144.197 17.925 144.197 20.355C144.197 21.975 144.002 23.58 143.612 25.17C143.222 26.73 142.607 28.155 141.767 29.445C140.957 30.705 139.892 31.725 138.572 32.505C137.282 33.255 135.722 33.63 133.892 33.63C132.482 33.63 131.252 33.3 130.202 32.64C129.182 31.98 128.492 31.185 128.132 30.255L128.582 29.625C129.002 30.465 129.602 31.17 130.382 31.74C131.192 32.31 132.197 32.595 133.397 32.595C135.077 32.595 136.382 32.07 137.312 31.02C138.242 29.97 138.887 28.575 139.247 26.835C139.637 25.065 139.832 23.115 139.832 20.985C139.832 18.585 139.637 16.62 139.247 15.09C138.857 13.56 138.272 12.42 137.492 11.67C136.712 10.92 135.752 10.545 134.612 10.545C133.142 10.545 131.807 11.16 130.607 12.39C129.407 13.59 128.642 15.42 128.312 17.88L127.772 17.25C128.102 14.7 129.002 12.72 130.472 11.31C131.972 9.9 133.757 9.195 135.827 9.195ZM154.009 33.315C152.779 33.315 151.714 33.09 150.814 32.64C149.914 32.16 149.224 31.5 148.744 30.66C148.294 29.82 148.069 28.845 148.069 27.735C148.069 26.415 148.369 25.335 148.969 24.495C149.599 23.655 150.394 22.98 151.354 22.47C152.314 21.96 153.319 21.54 154.369 21.21C155.449 20.85 156.469 20.52 157.429 20.22C158.389 19.89 159.169 19.515 159.769 19.095C160.399 18.675 160.714 18.12 160.714 17.43V14.64C160.714 13.38 160.519 12.42 160.129 11.76C159.769 11.1 159.274 10.665 158.644 10.455C158.014 10.215 157.309 10.095 156.529 10.095C155.779 10.095 154.969 10.2 154.099 10.41C153.259 10.62 152.584 11.055 152.074 11.715C152.644 11.835 153.139 12.135 153.559 12.615C153.979 13.095 154.189 13.71 154.189 14.46C154.189 15.21 153.949 15.81 153.469 16.26C152.989 16.68 152.374 16.89 151.624 16.89C150.754 16.89 150.109 16.62 149.689 16.08C149.299 15.51 149.104 14.88 149.104 14.19C149.104 13.41 149.299 12.78 149.689 12.3C150.079 11.82 150.574 11.37 151.174 10.95C151.864 10.47 152.749 10.065 153.829 9.735C154.939 9.375 156.184 9.195 157.564 9.195C158.794 9.195 159.844 9.345 160.714 9.645C161.584 9.915 162.304 10.32 162.874 10.86C163.654 11.58 164.164 12.465 164.404 13.515C164.644 14.535 164.764 15.765 164.764 17.205V29.715C164.764 30.465 164.869 31.005 165.079 31.335C165.319 31.665 165.679 31.83 166.159 31.83C166.489 31.83 166.804 31.755 167.104 31.605C167.404 31.455 167.764 31.215 168.184 30.885L168.679 31.65C168.049 32.13 167.449 32.535 166.879 32.865C166.309 33.165 165.544 33.315 164.584 33.315C163.714 33.315 162.994 33.165 162.424 32.865C161.854 32.565 161.419 32.13 161.119 31.56C160.849 30.96 160.714 30.21 160.714 29.31C159.904 30.66 158.929 31.665 157.789 32.325C156.679 32.985 155.419 33.315 154.009 33.315ZM155.629 31.515C156.619 31.515 157.534 31.23 158.374 30.66C159.244 30.09 160.024 29.235 160.714 28.095V19.275C160.354 19.785 159.829 20.22 159.139 20.58C158.449 20.91 157.699 21.255 156.889 21.615C156.079 21.945 155.299 22.35 154.549 22.83C153.829 23.28 153.229 23.88 152.749 24.63C152.269 25.38 152.029 26.355 152.029 27.555C152.029 28.755 152.344 29.715 152.974 30.435C153.634 31.155 154.519 31.515 155.629 31.515Z" fill="black"/>
</svg>
